<?xml version="1.0" standalone="no"?><!DOCTYPE svg PUBLIC "-//W3C//DTD SVG 1.1//EN" "http://www.w3.org/Graphics/SVG/1.1/DTD/svg11.dtd"><svg t="1654585163190" class="icon" viewBox="0 0 1024 1024" version="1.1" xmlns="http://www.w3.org/2000/svg" p-id="3529" xmlns:xlink="http://www.w3.org/1999/xlink" width="200" height="200"><defs><style type="text/css">@font-face { font-family: feedback-iconfont; src: url("//at.alicdn.com/t/font_1031158_u69w8yhxdu.woff2?t=1630033759944") format("woff2"), url("//at.alicdn.com/t/font_1031158_u69w8yhxdu.woff?t=1630033759944") format("woff"), url("//at.alicdn.com/t/font_1031158_u69w8yhxdu.ttf?t=1630033759944") format("truetype"); }
</style></defs><path d="M326.3 589.7c-15.5 0-28.2 12.7-28.2 28.2 0 15.6 12.6 28.3 28.2 28.3 15.5 0 28.2-12.7 28.2-28.3 0-15.5-12.6-28.2-28.2-28.2zM511.3 697c-15.5 0-28.2 12.7-28.2 28.2 0 15.6 12.6 28.2 28.2 28.2 15.5 0 28.2-12.7 28.2-28.2 0-15.6-12.7-28.2-28.2-28.2zM353.9 405.9c0-15.6-12.6-28.2-28.2-28.2s-28.2 12.7-28.2 28.2c0 15.6 12.6 28.3 28.2 28.3s28.2-12.8 28.2-28.3z" p-id="3530"></path><path d="M474 511.9a38.5 38.6 0 1 0 77 0 38.5 38.6 0 1 0-77 0Z" p-id="3531"></path><path d="M511.3 327.5c10.3 0 19.5-5.8 24.1-14.4v-0.6l0.6-0.6c2.3-4 3.4-8.6 3.4-13.3 0-15.6-12.6-28.2-28.2-28.2-15.5 0-28.2 12.7-28.2 28.8 0.2 15.6 12.8 28.3 28.3 28.3zM684.3 457.2c-23.6-5.2-40.8-26.5-40.8-51.3 0-5.2 1.1-10.4 2.3-15l-96-55.9c-9.8 10.4-23.6 16.7-38.5 16.7-15.5 0-28.7-6.3-38.5-16.7l-96.5 55.3c1.7 4.6 2.3 9.8 2.3 15 0 25.4-18.4 46.7-41.9 51.9v108.4c23.6 5.2 41.4 26.5 41.4 51.9 0 5.8-0.6 11-2.3 16.1l95.9 55.3c9.8-10.4 23.6-17.3 39.1-17.3s29.3 6.9 39.1 17.3l95.9-55.3c-1.7-5.2-2.3-10.4-2.3-16.1 0-24.8 17.8-45.5 40.8-51.3v-109z m-173-90.5c6.9 0 12.1 5.8 12.1 12.1 0 6.9-5.7 12.1-12.1 12.1-6.9 0-12.1-5.2-12.1-12.1 0.1-6.9 5.8-12.1 12.1-12.1z m0 39.2c6.9 0 12.1 5.2 12.1 12.1 0 6.9-5.7 12.1-12.1 12.1-6.9 0.6-12.1-5.2-12.1-12.1 0.1-6.9 5.8-12.1 12.1-12.1zM402.2 588.6c-6.3 3.5-13.2 1.2-16.7-4.6-3.4-5.8-1.1-13.3 4.6-16.7 5.7-3.5 13.2-1.2 16.7 4.6 3.4 5.7 1.1 13.2-4.6 16.7z m5.1-137.8c-3.4 5.8-10.9 7.5-16.7 4-5.7-3.5-7.5-11-4-16.7 3.4-5.8 10.9-7.5 16.7-4 5.8 3.5 7.5 11 4 16.7zM436.1 569c-5.7 3.5-13.2 1.2-16.7-4.6-3.4-5.8-1.1-13.3 4.6-16.7 5.7-3.5 13.2-1.2 16.7 4.6 3.4 5.7 1.1 13.2-4.6 16.7z m5.1-98.6c-3.4 5.8-10.9 7.5-16.7 4-5.7-3.5-7.5-11-4-16.7 3.4-5.8 10.9-7.5 16.7-4 5.8 3.5 7.5 11 4 16.7z m70.1 186.8c-6.9 0-12.1-5.8-12.1-12.1 0-6.9 5.7-12.1 12.1-12.1 6.9 0 12.1 5.2 12.1 12.1 0 6.9-5.7 12.1-12.1 12.1z m0-39.2c-6.9 0-12.1-5.2-12.1-12.1 0-6.9 5.7-12.1 12.1-12.1 6.9 0 12.1 5.2 12.1 12.1 0 6.9-5.7 12.1-12.1 12.1z m1.2-43.2c-34.5 0-62.6-28.2-62.6-62.8 0-34.6 28.2-62.8 62.6-62.8 34.5 0 62.6 28.2 62.6 62.8 0 34.5-28.1 62.8-62.6 62.8z m89.6-8.7c-3.4 5.8-10.9 7.5-16.7 4-5.7-3.5-7.5-11-4-16.7 3.4-5.8 10.9-7.5 16.7-4 5.7 3.5 7.5 10.9 4 16.7z m-3.4-89.9c-5.7 3.5-13.2 1.1-16.7-4.6-3.4-5.8-1.1-13.3 4.6-16.7 5.7-3.5 13.2-1.2 16.7 4.6 3.4 5.7 1.1 13.2-4.6 16.7z m36.7 110.1c-3.4 5.8-10.9 7.5-16.7 4-5.2-3.5-6.9-11-4-16.7 3.4-5.8 10.9-7.5 16.7-4 5.7 3.4 7.5 10.9 4 16.7z m-2.8-129.7c-5.7 3.5-13.2 1.7-16.7-4.6-3.4-5.8-1.1-13.3 4.6-16.7 5.7-3.5 13.2-1.2 16.7 4.6 3.4 5.7 1.1 13.2-4.6 16.7zM724.5 405.9c0-15.6-12.6-28.2-28.2-28.2-15.5 0-28.2 12.7-28.2 28.2 0 15.6 12.6 28.3 28.2 28.3 15.5-0.1 28.2-12.8 28.2-28.3zM668.7 618c0 15.6 12.6 28.3 28.2 28.3 15.5 0 28.2-12.7 28.2-28.3 0-15.6-12.6-28.2-28.2-28.2-15.5-0.1-28.2 12.6-28.2 28.2z" p-id="3532"></path><path d="M511.3 64.2c-247.4 0-448 200.6-448 448s200.6 448 448 448 448-200.6 448-448-200.5-448-448-448zM749.2 618c0 29.4-23.6 53-52.9 53-14.9 0-28.2-6.3-37.9-16.1l-96.5 55.9c1.7 4.6 2.3 9.2 2.3 14.4 0 29.4-23.6 53-52.9 53s-52.9-23.6-52.9-53c0-5.2 1.1-9.8 2.3-14.4l-96.5-55.9c-9.8 9.8-23 16.1-37.9 16.1-29.3 0-52.9-23.6-52.9-53 0-24.8 16.7-45.5 39.6-50.7V457.8c-23-5.8-39.6-26.5-39.6-51.3 0-29.4 23.6-53 52.9-53 15.5 0 28.7 6.3 38.5 16.7l95.9-55.9c-1.7-4.6-2.3-9.8-2.3-15 0-29.4 23.6-53 52.9-53s52.9 23.6 52.9 53c0 5.2-1.1 10.4-2.3 15l95.9 55.9c9.8-10.4 23.6-16.7 38.5-16.7 29.3 0 52.9 23.6 52.9 53 0 24.8-17.8 45.5-40.8 51.3v108.9c23.5 5.2 40.8 26.5 40.8 51.3z" p-id="3533"></path></svg>